<svg width="512" height="512" viewBox="0 0 512 512" fill="none" xmlns="http://www.w3.org/2000/svg">
<path d="M255.617 320.424C258.071 321.038 260.678 321.498 263.133 321.958L263.439 321.805L255.617 320.424Z" fill="black"/>
<path d="M143.181 113.348C126.155 119.943 110.816 129.147 97.4712 140.191L195.027 101.997C177.694 102.917 160.208 106.598 143.181 113.348Z" fill="#9BC658"/>
<path d="M226.166 103.224L200.703 113.194C201.01 112.887 201.316 112.734 201.623 112.581L75.5363 161.665C72.1618 165.807 68.9406 169.949 65.8728 174.397L241.351 105.831C236.289 104.758 231.227 103.837 226.166 103.224Z" fill="#9BC658"/>
<path d="M260.985 111.66L169.411 147.4C169.565 147.247 169.718 147.093 169.718 146.94L55.5956 191.577C53.7549 195.105 51.9142 198.786 50.2269 202.621L271.876 116.109C268.348 114.421 264.667 112.887 260.985 111.66Z" fill="#9BC658"/>
<path d="M286.908 123.471L153.765 175.471C153.765 175.317 153.919 175.164 153.919 175.01L44.3981 217.96C43.3244 221.334 42.404 224.709 41.4837 228.084L295.651 128.687C292.737 126.846 289.823 125.159 286.908 123.471Z" fill="#9BC658"/>
<path d="M248.714 169.028L314.825 143.105C312.524 141.111 310.07 139.117 307.769 137.276L245.8 161.512L248.714 169.028Z" fill="#9BC658"/>
<path d="M144.869 200.933C144.869 200.78 144.869 200.627 145.022 200.627L38.4159 242.195C37.9557 245.263 37.4955 248.484 37.0354 251.706L204.538 186.208L201.623 178.692L144.869 200.933Z" fill="#9BC658"/>
<path d="M256.077 188.202L330.624 159.058C328.784 156.91 326.79 154.763 324.796 152.769L253.162 180.839L256.077 188.202Z" fill="#9BC658"/>
<path d="M140.574 224.709C140.574 224.556 140.574 224.402 140.574 224.402L36.115 265.204C35.9617 268.118 35.9617 271.186 36.115 274.101L212.054 205.382L209.139 197.866L140.574 224.709Z" fill="#9BC658"/>
<path d="M139.653 247.104C139.653 246.951 139.653 246.951 139.653 246.797L37.0354 286.832C37.3422 289.593 37.6489 292.507 38.1091 295.268L181.836 239.128L178.921 231.612L139.653 247.104Z" fill="#9BC658"/>
<path d="M300.867 192.65L343.663 175.931C342.129 173.63 340.595 171.329 338.907 169.182L297.952 185.134L300.867 192.65Z" fill="#9BC658"/>
<path d="M308.383 211.824L354.246 193.877C353.019 191.423 351.792 189.122 350.412 186.822L305.468 204.461L308.383 211.824Z" fill="#9BC658"/>
<path d="M141.494 268.272C141.494 268.118 141.494 268.118 141.494 267.965L40.41 307.54C41.0235 310.301 41.7905 312.908 42.5574 315.669L189.352 258.301L186.438 250.785L141.494 268.272Z" fill="#9BC658"/>
<path d="M145.942 288.673C145.942 288.519 145.942 288.519 145.789 288.366L46.2388 327.174C46.699 328.401 47.1591 329.781 47.7727 331.008C48.2329 332.235 48.8464 333.616 49.3066 334.843L234.449 262.596L231.534 255.08L145.942 288.673Z" fill="#9BC658"/>
<path d="M278.472 245.417L362.53 212.591C362.069 211.364 361.609 209.983 360.996 208.756C360.535 207.529 360.075 206.302 359.615 205.228L275.711 238.054L278.472 245.417Z" fill="#9BC658"/>
<path d="M285.834 264.59L368.205 232.378C367.591 229.771 366.978 227.163 366.211 224.555L282.92 257.074L285.834 264.59Z" fill="#9BC658"/>
<path d="M238.897 274.254L152.692 308C152.692 307.846 152.692 307.846 152.538 307.693L54.3685 346.041C55.5956 348.495 56.9761 350.949 58.3566 353.403L241.811 281.77L238.897 274.254Z" fill="#9BC658"/>
<path d="M370.659 244.803L161.742 326.407C161.742 326.253 161.588 326.253 161.588 326.1L64.799 363.834C66.3329 366.288 68.0202 368.589 69.7075 370.89L371.58 252.933C371.426 250.325 370.966 247.564 370.659 244.803Z" fill="#9BC658"/>
<path d="M372.5 274.714C372.653 271.8 372.653 269.039 372.5 266.124L173.246 343.893C173.246 343.74 173.093 343.74 173.093 343.586L77.8372 380.707C79.8313 383.008 81.8254 385.155 83.9728 387.303L255.617 320.424L372.5 274.714Z" fill="#9BC658"/>
<path d="M187.204 360.153L93.7898 396.659C96.244 398.807 98.6983 400.801 101.153 402.642L370.199 297.569C370.659 294.502 371.119 291.587 371.426 288.519L187.358 360.459C187.358 360.306 187.204 360.306 187.204 360.153Z" fill="#9BC658"/>
<path d="M204.384 375.492L113.117 411.078C116.031 412.919 119.099 414.759 122.167 416.447L364.217 321.958C365.291 318.737 366.211 315.516 366.978 312.295L204.538 375.798C204.538 375.645 204.384 375.645 204.384 375.492Z" fill="#9BC658"/>
<path d="M225.092 389.45L136.739 423.963C140.42 425.65 144.255 427.031 148.09 428.411L353.019 348.341C354.86 344.813 356.547 341.286 358.081 337.758L225.399 389.603C225.399 389.603 225.245 389.45 225.092 389.45Z" fill="#9BC658"/>
<path d="M251.168 401.261L167.264 433.933C172.479 435.16 177.694 436.081 183.063 436.694L333.079 378.099C336.453 374.111 339.521 370.123 342.435 365.828L251.628 401.261C251.475 401.414 251.322 401.261 251.168 401.261Z" fill="#9BC658"/>
<path d="M285.834 409.698L213.588 437.921C230.921 437.001 248.407 433.32 265.433 426.571C282.153 420.128 297.185 411.078 310.377 400.494L286.448 409.851C286.295 409.698 286.141 409.698 285.834 409.698Z" fill="#9BC658"/>
<path d="M245.8 161.512L307.769 137.276L399.036 101.69C396.122 99.8492 393.054 98.0085 389.986 96.3212L242.732 153.843L245.8 161.512Z" fill="#7BB1AF"/>
<path d="M201.777 178.845L198.709 171.022L147.783 190.963C146.709 194.184 145.789 197.405 145.022 200.627C145.022 200.78 144.869 200.933 144.869 200.933L201.777 178.845Z" fill="#7BB1AF"/>
<path d="M297.952 185.134L338.907 169.182L434.163 132.061C432.169 129.76 430.175 127.613 428.027 125.465L294.884 177.465L297.952 185.134Z" fill="#7BB1AF"/>
<path d="M178.921 231.611L175.854 223.789L139.5 238.054C139.347 240.968 139.347 243.729 139.5 246.644C139.5 246.797 139.5 246.797 139.5 246.951L178.921 231.611Z" fill="#7BB1AF"/>
<path d="M226.166 103.224L298.412 75C281.079 75.9203 263.593 79.6017 246.566 86.3509C229.847 92.7933 214.815 101.843 201.623 112.427C201.316 112.734 201.01 112.887 200.703 113.041L226.166 103.224Z" fill="#7BB1AF"/>
<path d="M260.985 111.66L344.736 78.9882C339.521 77.761 334.306 76.8407 328.937 76.2271L179.075 134.669C175.7 138.657 172.632 142.645 169.718 146.94C169.565 147.093 169.411 147.247 169.411 147.4L260.985 111.66Z" fill="#7BB1AF"/>
<path d="M286.908 123.471L375.261 88.9585C371.58 87.2712 367.745 85.8907 363.91 84.5102L158.981 164.58C157.14 168.108 155.453 171.636 153.919 175.164C153.919 175.317 153.765 175.471 153.765 175.624L286.908 123.471Z" fill="#7BB1AF"/>
<path d="M209.139 197.866L206.071 190.043L141.954 215.199C141.494 218.267 141.034 221.181 140.727 224.249C140.727 224.402 140.727 224.556 140.727 224.556L209.139 197.866Z" fill="#7BB1AF"/>
<path d="M253.162 180.686L324.796 152.615L418.21 116.109C415.756 113.961 413.302 111.967 410.847 110.126L250.248 172.863L253.162 180.686Z" fill="#7BB1AF"/>
<path d="M305.468 204.308L350.412 186.668L447.201 148.934C445.667 146.48 443.98 144.179 442.292 141.878L302.401 196.485L305.468 204.308Z" fill="#7BB1AF"/>
<path d="M186.438 250.785L183.37 242.962L140.42 259.682C140.727 262.443 141.034 265.204 141.494 267.812C141.494 267.965 141.494 267.965 141.494 268.118L186.438 250.785Z" fill="#7BB1AF"/>
<path d="M275.557 238.054L359.462 205.228L457.631 166.881C456.404 164.427 455.024 161.972 453.643 159.518L272.336 230.384L275.557 238.054Z" fill="#7BB1AF"/>
<path d="M231.381 255.234L228.313 247.411L143.795 280.543C144.409 283.151 145.022 285.758 145.789 288.366C145.789 288.519 145.789 288.519 145.942 288.673L231.381 255.234Z" fill="#7BB1AF"/>
<path d="M282.92 257.074L366.211 224.556L465.915 185.594C465.454 184.367 464.994 182.987 464.381 181.76C463.921 180.533 463.307 179.152 462.847 177.925L280.006 249.405L282.92 257.074Z" fill="#7BB1AF"/>
<path d="M238.897 274.254L235.829 266.431L149.624 300.177C150.084 301.404 150.544 302.785 151.158 304.012C151.618 305.239 152.078 306.466 152.538 307.54C152.538 307.693 152.538 307.693 152.692 307.846L238.897 274.254Z" fill="#7BB1AF"/>
<path d="M370.659 244.803L471.743 205.382C471.13 202.621 470.363 200.013 469.596 197.252L157.754 319.044C158.981 321.498 160.208 323.799 161.588 326.1C161.588 326.253 161.742 326.253 161.742 326.407L370.659 244.803Z" fill="#7BB1AF"/>
<path d="M372.5 266.124L475.118 226.089C474.811 223.328 474.504 220.414 474.044 217.653L168.337 336.991C169.871 339.291 171.405 341.592 173.093 343.74C173.093 343.893 173.246 343.893 173.246 344.047L372.5 266.124Z" fill="#7BB1AF"/>
<path d="M263.439 321.805L263.133 321.958L181.376 353.863C183.216 356.011 185.21 358.158 187.204 360.152C187.358 360.306 187.358 360.306 187.358 360.459L371.426 288.519L475.885 247.717C476.038 244.803 476.038 241.735 475.885 238.821L263.439 321.805Z" fill="#7BB1AF"/>
<path d="M204.384 375.492C204.538 375.492 204.538 375.645 204.691 375.645L367.131 312.141L473.737 270.573C474.198 267.505 474.658 264.284 475.118 261.062L197.175 369.663C199.476 371.657 201.93 373.651 204.384 375.492Z" fill="#7BB1AF"/>
<path d="M225.092 389.45C225.245 389.45 225.245 389.603 225.399 389.603L358.081 337.758L467.602 294.962C468.676 291.587 469.596 288.212 470.516 284.838L216.349 384.081C219.263 386.075 222.177 387.763 225.092 389.45Z" fill="#7BB1AF"/>
<path d="M251.168 401.261C251.322 401.261 251.475 401.414 251.628 401.414L342.435 365.981L456.558 321.345C458.398 317.817 460.239 314.135 461.926 310.301L240.124 396.966C243.805 398.5 247.487 399.881 251.168 401.261Z" fill="#7BB1AF"/>
<path d="M285.834 409.698C285.988 409.698 286.295 409.698 286.448 409.851L310.377 400.494L436.464 351.103C439.838 346.961 443.059 342.819 446.127 338.371L270.802 406.937C275.711 408.164 280.773 409.084 285.834 409.698Z" fill="#7BB1AF"/>
<path d="M368.972 399.574C385.998 392.978 401.337 383.775 414.682 372.73L317.126 410.925C334.459 409.851 351.946 406.17 368.972 399.574Z" fill="#7BB1AF"/>
</svg>
