<?xml version="1.0" standalone="no"?>
<!DOCTYPE svg PUBLIC "-//W3C//DTD SVG 20010904//EN"
 "http://www.w3.org/TR/2001/REC-SVG-20010904/DTD/svg10.dtd">
<svg version="1.0" xmlns="http://www.w3.org/2000/svg"
 width="700.000000pt" height="700.000000pt" viewBox="0 0 700.000000 700.000000"
 preserveAspectRatio="xMidYMid meet">
<metadata>
Created by potrace 1.14, written by Peter Selinger 2001-2017
</metadata>
<g transform="translate(0.000000,700.000000) scale(0.100000,-0.100000)"
fill="#000000" stroke="none">
<path d="M3937 5963 c-1 -1 -23 -4 -47 -7 -65 -8 -223 -41 -305 -64 -263 -74
-539 -211 -762 -379 -44 -33 -92 -64 -104 -68 -13 -3 -33 -10 -44 -16 -11 -5
-137 -54 -280 -109 -143 -55 -269 -105 -280 -110 -11 -4 -243 -95 -515 -200
-272 -106 -512 -199 -533 -207 -28 -11 -55 -38 -99 -95 -33 -44 -58 -81 -56
-83 3 -4 134 46 618 237 113 44 232 90 265 103 95 35 838 325 860 335 21 10
336 133 518 202 97 37 128 57 95 59 -7 0 -22 2 -33 5 -11 2 -40 7 -65 10 -45
7 -88 23 -62 24 13 0 226 82 702 270 254 100 255 100 192 98 -35 -2 -64 -4
-65 -5z"/>
<path d="M4465 5946 c-26 -11 -805 -315 -1065 -416 -52 -20 -289 -112 -525
-205 l-431 -168 -66 -86 -66 -86 -129 -49 c-70 -27 -171 -66 -223 -86 -52 -20
-196 -76 -320 -124 -124 -48 -238 -94 -255 -101 -16 -7 -95 -38 -175 -69 -80
-30 -212 -82 -295 -114 l-150 -59 -38 -72 c-22 -40 -37 -74 -35 -76 1 -1 181
67 398 152 217 85 492 192 610 238 118 46 303 118 410 160 107 43 222 87 255
100 100 37 508 196 540 210 17 7 172 68 345 135 387 149 443 172 453 180 5 4
-18 18 -50 30 -32 13 -62 26 -66 30 -5 5 15 17 45 28 85 32 981 382 1003 392
11 5 30 12 43 15 51 14 30 21 -163 51 -11 2 -33 -3 -50 -10z"/>
<path d="M4780 5769 c-96 -38 -238 -94 -315 -124 -177 -68 -1018 -397 -1105
-431 -36 -14 -83 -33 -105 -41 -22 -9 -53 -21 -70 -28 -16 -7 -118 -47 -225
-88 -379 -147 -781 -305 -785 -309 -1 -1 -18 -34 -37 -72 l-35 -69 -724 -283
c-398 -156 -735 -289 -748 -296 -23 -13 -41 -49 -55 -115 l-7 -31 288 113
c158 61 538 210 843 329 305 119 564 221 575 226 11 5 410 161 887 347 478
186 868 341 868 345 0 3 -24 21 -52 38 l-53 33 165 64 c91 35 174 68 185 72
11 5 58 24 105 41 47 18 99 38 115 45 17 7 109 43 205 80 96 37 189 73 205 80
17 7 68 28 115 45 47 18 89 36 93 40 10 9 -84 50 -127 55 -21 3 -84 -17 -206
-66z"/>
<path d="M5295 5669 c-11 -5 -396 -155 -855 -335 -949 -370 -1114 -435 -1118
-439 -4 -3 68 -187 77 -197 4 -5 121 37 261 92 140 56 342 135 449 177 l194
77 -49 43 c-39 34 -45 43 -29 43 12 0 25 4 30 8 6 5 55 25 110 46 55 21 161
62 235 91 142 56 171 67 580 227 140 54 258 102 262 106 8 8 -96 72 -115 71
-7 0 -21 -4 -32 -10z"/>
<path d="M2455 5584 c-363 -54 -729 -207 -1027 -427 -43 -32 -78 -60 -78 -62
0 -2 28 7 63 20 113 43 532 206 552 215 11 5 45 19 75 30 30 11 64 25 75 30
11 5 133 52 270 105 138 54 252 99 255 102 8 7 -100 0 -185 -13z"/>
<path d="M5430 5423 c-91 -35 -174 -69 -185 -74 -17 -7 -422 -166 -855 -334
-122 -47 -398 -155 -665 -260 -115 -45 -231 -90 -257 -100 l-47 -17 20 -52
c11 -28 27 -71 35 -96 9 -25 19 -49 24 -53 5 -6 557 202 805 304 17 7 32 13
35 14 9 2 114 43 147 57 l33 14 -40 44 -40 44 33 11 c17 6 102 39 187 72 85
34 162 64 170 67 247 93 875 345 877 352 3 11 -82 74 -99 73 -7 -1 -87 -30
-178 -66z"/>
<path d="M5530 5159 c-168 -66 -309 -122 -315 -123 -5 -2 -23 -8 -40 -15 -55
-22 -669 -263 -730 -286 -33 -13 -139 -54 -237 -92 l-176 -69 39 -98 c21 -55
41 -101 43 -104 5 -4 207 72 469 177 l117 48 -34 44 -34 45 201 78 c413 160
763 297 782 306 11 4 86 34 168 65 81 31 147 60 147 64 0 11 -75 81 -85 80 -6
0 -147 -54 -315 -120z"/>
<path d="M5525 4858 c-280 -109 -519 -203 -530 -208 -11 -5 -166 -66 -345
-136 -481 -187 -505 -196 -509 -200 -7 -7 72 -204 82 -204 6 0 119 42 251 94
133 52 267 104 298 116 32 12 60 25 63 30 3 4 -6 28 -20 53 l-25 44 47 18 c27
10 62 23 78 31 17 7 233 92 480 188 568 220 707 275 713 280 5 6 -57 96 -66
95 -4 -1 -236 -91 -517 -201z"/>
<path d="M6050 4760 c-80 -31 -361 -141 -625 -244 -264 -104 -552 -216 -640
-251 -177 -69 -216 -85 -615 -240 -151 -59 -312 -121 -357 -139 -45 -17 -83
-35 -83 -41 0 -18 75 -195 83 -195 8 0 418 157 482 185 17 7 41 16 55 20 14 4
43 16 65 25 22 10 130 53 240 95 110 43 214 83 230 90 17 7 38 16 49 19 20 7
17 36 -9 88 -12 25 -11 27 14 33 14 4 40 13 56 20 17 7 109 43 205 80 96 37
184 71 195 76 11 5 117 46 235 93 542 211 615 239 619 242 6 5 -30 83 -43 92
-6 5 -71 -15 -156 -48z"/>
<path d="M2380 4531 c-179 -70 -333 -131 -342 -134 -11 -4 -25 -32 -38 -75
-19 -63 -24 -69 -58 -81 -20 -7 -46 -16 -57 -21 -11 -5 -105 -43 -210 -83
-157 -61 -1032 -403 -1127 -441 -17 -6 -28 -18 -29 -31 0 -11 -2 -39 -5 -62
l-5 -42 63 23 c117 45 403 156 423 166 11 5 214 84 450 176 237 91 444 172
460 179 17 7 194 77 395 155 498 194 490 191 490 203 0 17 -73 197 -79 196 -3
0 -152 -58 -331 -128z"/>
<path d="M5830 4373 c-272 -107 -583 -228 -690 -270 -107 -41 -208 -81 -225
-88 -16 -7 -172 -68 -345 -135 -173 -67 -328 -128 -345 -135 -16 -7 -109 -43
-205 -80 -96 -37 -178 -70 -182 -74 -11 -10 63 -201 78 -201 14 0 1102 424
1111 433 3 4 0 27 -6 53 -7 26 -8 50 -4 54 4 4 96 41 203 83 213 83 523 204
805 314 99 39 217 85 263 103 45 17 82 35 81 38 0 4 -10 28 -22 53 l-22 46
-495 -194z"/>
<path d="M2635 4331 c-138 -55 -407 -161 -657 -259 -21 -8 -38 -19 -39 -26 0
-6 -2 -20 -4 -31 -3 -11 -5 -34 -7 -52 -2 -30 -6 -33 -78 -59 -41 -15 -93 -35
-115 -45 -22 -9 -310 -122 -640 -251 l-600 -234 -2 -57 c-1 -39 3 -57 11 -57
7 0 50 15 97 34 46 18 143 56 214 84 357 139 613 239 740 288 77 30 149 58
160 63 11 5 36 15 55 21 19 7 49 19 65 26 26 11 209 83 884 345 85 33 160 63
167 67 8 5 1 35 -28 110 -22 56 -43 102 -47 101 -3 0 -82 -31 -176 -68z"/>
<path d="M6105 4181 c-165 -65 -442 -173 -615 -240 -173 -67 -324 -127 -335
-131 -11 -5 -137 -55 -280 -111 -143 -55 -323 -126 -400 -156 -77 -30 -237
-92 -355 -138 -118 -46 -343 -134 -500 -195 -157 -62 -323 -127 -370 -145
-104 -40 -670 -261 -913 -357 -97 -38 -177 -72 -177 -75 0 -4 11 -25 25 -49
l25 -42 -58 -22 c-31 -12 -66 -26 -77 -31 -19 -8 -892 -348 -1087 -424 -54
-20 -98 -39 -98 -42 0 -7 60 -93 65 -93 3 0 60 22 127 49 68 27 265 104 438
171 173 67 329 128 345 135 17 7 46 18 65 25 19 7 49 19 65 26 17 7 113 45
215 84 102 40 271 105 375 146 105 41 237 93 295 115 58 22 114 44 125 49 11
5 137 55 280 110 143 55 269 105 280 110 11 5 49 20 85 33 36 13 263 101 505
196 242 95 503 197 580 227 77 30 149 59 160 63 11 5 57 24 103 41 l82 32 -6
57 -6 56 39 14 c37 12 169 64 208 81 11 5 99 39 195 75 96 37 189 73 205 80
17 7 187 74 379 148 191 75 350 137 352 139 6 7 -22 102 -31 104 -6 1 -145
-50 -310 -115z"/>
<path d="M6415 3999 c-92 -36 -475 -186 -945 -369 -725 -283 -744 -290 -765
-300 -11 -5 -204 -80 -430 -168 -225 -87 -644 -250 -930 -362 -286 -111 -594
-231 -685 -267 -91 -35 -174 -68 -185 -73 -11 -5 -53 -21 -92 -36 -40 -15 -73
-32 -73 -37 0 -6 12 -26 26 -44 15 -19 22 -38 18 -43 -5 -4 -34 -17 -64 -28
-30 -11 -305 -118 -610 -236 -493 -192 -593 -232 -609 -243 -7 -5 71 -83 82
-83 6 0 199 74 431 164 231 90 689 268 1016 396 327 127 609 238 627 246 17 8
34 14 37 14 3 0 259 99 568 220 310 121 662 259 783 307 121 47 278 109 350
137 l129 51 1 59 0 58 690 270 c380 148 695 272 702 274 11 5 10 21 -3 87 -7
32 -5 32 -69 6z"/>
<path d="M2250 3881 c-80 -32 -190 -76 -245 -97 l-100 -40 2 -59 2 -60 -267
-104 c-445 -173 -1003 -391 -1067 -416 -58 -23 -60 -25 -61 -62 -1 -86 -3 -85
89 -48 100 39 198 77 1127 440 404 158 739 290 744 295 9 9 -63 211 -74 209
-3 0 -70 -27 -150 -58z"/>
<path d="M6450 3714 c-19 -9 -80 -33 -135 -54 -55 -21 -199 -77 -320 -125
-121 -47 -353 -138 -515 -201 -162 -63 -304 -118 -315 -123 -11 -5 -99 -40
-195 -77 -96 -36 -194 -75 -217 -85 -23 -11 -44 -19 -47 -19 -3 0 -103 -38
-223 -85 -120 -47 -265 -104 -323 -126 -58 -22 -114 -45 -125 -50 -11 -4 -85
-34 -165 -65 -275 -106 -555 -216 -670 -261 -229 -91 -626 -245 -667 -260 -24
-8 -43 -19 -43 -24 0 -6 13 -24 30 -42 33 -36 36 -43 17 -50 -222 -87 -728
-284 -932 -363 -148 -58 -280 -109 -292 -114 -29 -12 -22 -28 30 -66 39 -29
44 -30 72 -18 17 8 125 50 240 95 116 44 219 84 230 89 11 5 97 39 190 75 94
36 260 101 370 145 110 43 313 122 450 175 138 53 259 100 270 105 11 5 45 19
75 30 30 11 64 25 75 30 11 5 369 144 795 310 988 385 942 366 951 382 4 7 9
36 11 63 l5 50 584 228 c321 126 643 251 715 279 l132 51 0 58 c0 65 -3 67
-58 43z"/>
<path d="M2445 3654 c-33 -12 -163 -63 -290 -112 -221 -87 -230 -92 -231 -118
-1 -15 2 -43 6 -61 5 -19 4 -33 -1 -33 -9 0 -217 -80 -764 -295 -115 -45 -299
-117 -408 -160 -108 -42 -199 -80 -200 -83 -6 -11 23 -102 32 -102 8 0 1243
480 1286 500 11 5 121 48 245 96 124 48 270 105 325 126 55 22 108 42 118 45
9 3 17 13 17 22 0 13 -67 193 -73 197 -1 0 -29 -9 -62 -22z"/>
<path d="M2965 3557 c-82 -32 -163 -65 -180 -72 -16 -6 -66 -26 -110 -43 -146
-57 -570 -222 -590 -231 -11 -5 -42 -17 -69 -26 -45 -16 -48 -19 -42 -46 19
-93 31 -79 -106 -131 -68 -26 -314 -122 -548 -213 -234 -91 -483 -189 -555
-216 -71 -28 -130 -51 -131 -52 -1 -1 8 -25 20 -54 l21 -51 485 189 c267 104
582 227 700 273 118 47 339 132 490 191 151 58 284 110 295 115 18 9 108 44
425 167 63 24 119 48 124 53 8 8 -56 184 -73 201 -3 3 -73 -21 -156 -54z"/>
<path d="M5910 3203 c-316 -123 -584 -228 -595 -233 -11 -5 -85 -35 -165 -66
-80 -30 -433 -168 -785 -306 -352 -137 -692 -270 -755 -295 -63 -24 -286 -112
-496 -194 -210 -82 -386 -149 -392 -149 -29 0 -18 -23 29 -60 28 -22 46 -40
40 -40 -7 0 -154 -56 -329 -123 -174 -68 -447 -175 -607 -237 -159 -62 -293
-115 -298 -119 -4 -4 21 -22 55 -40 l63 -33 130 50 c72 28 270 105 440 172
171 67 396 155 500 195 105 41 287 112 405 158 724 283 902 353 1339 523 478
187 484 189 498 223 8 19 17 49 20 67 6 37 -96 -6 901 383 310 121 566 222
568 224 6 5 18 127 13 126 -2 0 -263 -102 -579 -226z"/>
<path d="M3175 3338 c-27 -11 -77 -30 -110 -43 -69 -25 -883 -345 -962 -377
-29 -12 -53 -25 -53 -29 0 -4 8 -27 19 -51 l19 -44 -197 -77 c-732 -285 -1081
-421 -1112 -434 l-36 -16 25 -46 c14 -25 26 -48 28 -49 2 -3 573 216 659 253
17 7 118 47 225 88 107 42 353 137 545 212 193 75 460 179 595 232 135 52 259
101 275 108 17 7 69 28 117 47 49 18 88 38 88 43 0 6 -17 53 -38 106 l-37 97
-50 -20z"/>
<path d="M6045 2954 c-203 -80 -381 -149 -395 -154 -14 -5 -95 -36 -180 -70
-85 -33 -306 -120 -490 -191 -184 -72 -366 -143 -405 -159 -38 -15 -209 -82
-380 -148 -170 -67 -490 -191 -710 -277 -220 -86 -426 -166 -457 -178 -32 -12
-58 -24 -58 -28 0 -4 23 -22 51 -40 35 -22 47 -34 37 -40 -7 -4 -107 -43 -223
-88 -115 -45 -219 -86 -230 -91 -11 -4 -159 -63 -330 -129 -170 -66 -329 -128
-353 -137 -24 -10 -39 -21 -34 -26 5 -5 39 -19 75 -32 l67 -23 92 37 c51 20
102 40 113 45 11 4 25 9 30 11 6 1 39 14 75 29 36 14 175 69 310 122 282 109
978 382 1545 604 215 84 444 173 510 199 l120 46 36 73 35 74 240 93 c131 51
468 182 748 292 l508 198 13 37 c18 51 26 97 17 97 -4 -1 -173 -66 -377 -146z"/>
<path d="M6200 2713 c-165 -66 -761 -298 -1555 -608 -121 -47 -229 -89 -240
-94 -11 -5 -112 -45 -225 -89 -725 -282 -889 -347 -882 -353 4 -4 36 -17 71
-30 l64 -23 -29 -13 c-40 -18 -953 -373 -984 -383 -14 -4 -47 -18 -75 -30
l-50 -23 30 -8 c30 -9 67 -15 141 -24 32 -5 165 44 873 320 460 179 845 330
856 334 11 5 45 19 75 31 30 11 64 25 75 30 11 4 64 25 117 46 l97 37 61 81
62 82 251 98 c139 54 342 134 452 177 110 43 348 136 529 207 l329 129 37 76
c21 43 37 77 36 76 0 0 -53 -21 -116 -46z"/>
<path d="M6015 2341 c-38 -15 -209 -82 -380 -149 -170 -67 -409 -160 -530
-207 -121 -47 -229 -89 -240 -95 -11 -5 -119 -47 -240 -94 -121 -46 -348 -135
-505 -197 -157 -61 -306 -119 -331 -129 -89 -33 -89 -36 -8 -50 41 -7 84 -15
96 -19 17 -4 -102 -55 -452 -191 -261 -102 -475 -188 -475 -192 0 -12 292 32
414 63 109 28 312 102 416 152 148 71 364 206 430 268 9 9 170 76 356 148 186
73 353 139 369 146 17 7 80 32 140 55 61 23 124 48 140 55 17 7 109 43 205 80
96 37 189 73 205 80 17 7 100 40 185 73 l155 60 64 81 c35 45 62 84 60 85 -2
2 -35 -8 -74 -23z"/>
<path d="M5610 1881 c-25 -10 -144 -57 -265 -104 -698 -273 -989 -388 -993
-392 -3 -2 8 -3 24 -1 16 2 58 7 94 11 36 4 72 8 80 10 8 1 35 6 60 10 64 10
230 52 314 79 229 76 449 188 639 328 118 87 119 88 47 59z"/>
</g>
</svg>
