<svg width="1100" height="1113" viewBox="0 0 1100 1113" fill="none" xmlns="http://www.w3.org/2000/svg">
<g opacity="0.4">
<path fill-rule="evenodd" clip-rule="evenodd" d="M603.905 1107.45C582.125 1104.48 560.534 1100.44 539.213 1095.34Z" fill="black"/>
<mask id="mask0_9_32" style="mask-type:luminance" maskUnits="userSpaceOnUse" x="58" y="0" width="912" height="89">
<path d="M58.1169 0H969.089V88.956H58.1169V0Z" fill="white"/>
</mask>
<g mask="url(#mask0_9_32)">
<path fill-rule="evenodd" clip-rule="evenodd" d="M922.425 -307.117L79.8776 41.1086C72.0745 56.7798 64.8177 72.7375 58.1169 88.9561L969.089 -287.543C953.768 -294.653 938.196 -301.184 922.425 -307.117Z" fill="#9BC658"/>
</g>
<mask id="mask1_9_32" style="mask-type:luminance" maskUnits="userSpaceOnUse" x="21" y="0" width="1046" height="200">
<path d="M21.9934 0H1066.53V199.579H21.9934V0Z" fill="white"/>
</mask>
<g mask="url(#mask1_9_32)">
<path fill-rule="evenodd" clip-rule="evenodd" d="M1029.53 -255.686L34.0945 155.731C29.6321 170.205 25.6049 184.828 21.9934 199.579L1066.53 -232.128C1054.43 -240.383 1042.09 -248.249 1029.53 -255.686Z" fill="#9BC658"/>
</g>
<mask id="mask2_9_32" style="mask-type:luminance" maskUnits="userSpaceOnUse" x="4" y="0" width="1096" height="303">
<path d="M4.12891 0H1100V302.658H4.12891V0Z" fill="white"/>
</mask>
<g mask="url(#mask2_9_32)">
<path fill-rule="evenodd" clip-rule="evenodd" d="M1115.42 -195.488L9.52437 261.588C7.35845 275.193 5.55513 288.9 4.12891 302.658L1145.71 -169.152C1135.84 -178.251 1125.73 -187.033 1115.42 -195.488Z" fill="#9BC658"/>
</g>
<mask id="mask3_9_32" style="mask-type:luminance" maskUnits="userSpaceOnUse" x="0" y="0" width="1100" height="400">
<path d="M0 0H1100V399.98H0V0Z" fill="white"/>
</mask>
<g mask="url(#mask3_9_32)">
<path fill-rule="evenodd" clip-rule="evenodd" d="M1185.98 -128.951L0.28733 361.093C-0.0704333 374.023 -0.0897718 386.989 0.205141 399.98L1210.95 -100.416C1202.86 -110.19 1194.52 -119.704 1185.98 -128.951Z" fill="#9BC658"/>
</g>
<mask id="mask4_9_32" style="mask-type:luminance" maskUnits="userSpaceOnUse" x="3" y="0" width="1097" height="493">
<path d="M3.51489 0H1100V492.472H3.51489V0Z" fill="white"/>
</mask>
<g mask="url(#mask4_9_32)">
<path fill-rule="evenodd" clip-rule="evenodd" d="M1244.07 -57.265L3.51489 455.458C4.68971 467.794 6.18362 480.136 7.97727 492.472L1264.52 -26.8584C1257.92 -37.2105 1251.1 -47.3528 1244.07 -57.265Z" fill="#9BC658"/>
</g>
<mask id="mask5_9_32" style="mask-type:luminance" maskUnits="userSpaceOnUse" x="17" y="18" width="1083" height="563">
<path d="M17.5639 18.8976H1100V580.659H17.5639V18.8976Z" fill="white"/>
</mask>
<g mask="url(#mask5_9_32)">
<path fill-rule="evenodd" clip-rule="evenodd" d="M1291.34 18.8976L17.5639 545.353C20.1408 557.137 22.9884 568.911 26.1357 580.659L1307.66 51.0124C1302.46 40.108 1297.01 29.4133 1291.34 18.8976Z" fill="#9BC658"/>
</g>
<mask id="mask6_9_32" style="mask-type:luminance" maskUnits="userSpaceOnUse" x="41" y="99" width="1059" height="566">
<path d="M41.5326 99.1565H1100V664.857H41.5326V99.1565Z" fill="white"/>
</mask>
<g mask="url(#mask6_9_32)">
<path fill-rule="evenodd" clip-rule="evenodd" d="M1335.11 115.933C1333.03 110.301 1330.88 104.711 1328.69 99.1565L41.5326 631.146C43.4713 636.798 45.4777 642.439 47.5662 648.081C49.6451 653.712 51.7869 659.302 53.9818 664.857L1341.13 132.872C1339.2 127.215 1337.19 121.564 1335.11 115.933Z" fill="#9BC658"/>
</g>
<mask id="mask7_9_32" style="mask-type:luminance" maskUnits="userSpaceOnUse" x="75" y="183" width="1025" height="563">
<path d="M75.0135 183.348H1100V745.11H75.0135V183.348Z" fill="white"/>
</mask>
<g mask="url(#mask7_9_32)">
<path fill-rule="evenodd" clip-rule="evenodd" d="M1356.54 183.348L75.0135 713.011C80.2252 723.9 85.6642 734.605 91.3304 745.11L1365.11 218.655C1362.55 206.871 1359.68 195.097 1356.54 183.348Z" fill="#9BC658"/>
</g>
<mask id="mask8_9_32" style="mask-type:luminance" maskUnits="userSpaceOnUse" x="118" y="271" width="982" height="551">
<path d="M118.169 271.538H1100V821.275H118.169V271.538Z" fill="white"/>
</mask>
<g mask="url(#mask8_9_32)">
<path fill-rule="evenodd" clip-rule="evenodd" d="M1374.7 271.538L118.169 790.868C124.759 801.226 131.566 811.363 138.605 821.275L1379.17 308.552C1377.98 296.216 1376.5 283.874 1374.7 271.538Z" fill="#9BC658"/>
</g>
<mask id="mask9_9_32" style="mask-type:luminance" maskUnits="userSpaceOnUse" x="171" y="364" width="929" height="529">
<path d="M171.718 364.026H1100V892.957H171.718V364.026Z" fill="white"/>
</mask>
<g mask="url(#mask9_9_32)">
<path fill-rule="evenodd" clip-rule="evenodd" d="M1382.47 364.026L171.718 864.422C179.83 874.196 188.156 883.709 196.694 892.957L1382.38 402.912C1382.74 389.982 1382.76 377.017 1382.47 364.026Z" fill="#9BC658"/>
</g>
<mask id="mask10_9_32" style="mask-type:luminance" maskUnits="userSpaceOnUse" x="236" y="461" width="864" height="499">
<path d="M236.955 461.343H1100V959.504H236.955V461.343Z" fill="white"/>
</mask>
<g mask="url(#mask10_9_32)">
<path fill-rule="evenodd" clip-rule="evenodd" d="M1378.55 461.343L236.955 933.153C246.837 942.252 256.932 951.034 267.254 959.504L1373.16 502.428C1375.32 488.808 1377.11 475.111 1378.55 461.343Z" fill="#9BC658"/>
</g>
<mask id="mask11_9_32" style="mask-type:luminance" maskUnits="userSpaceOnUse" x="316" y="564" width="784" height="456">
<path d="M316.149 564.424H1100V1019.69H316.149V564.424Z" fill="white"/>
</mask>
<g mask="url(#mask11_9_32)">
<path fill-rule="evenodd" clip-rule="evenodd" d="M1360.68 564.424L316.149 996.13C328.25 1004.4 340.588 1012.25 353.144 1019.69L1348.58 608.277C1353.04 593.812 1357.07 579.184 1360.68 564.424Z" fill="#9BC658"/>
</g>
<mask id="mask12_9_32" style="mask-type:luminance" maskUnits="userSpaceOnUse" x="413" y="675" width="687" height="397">
<path d="M413.591 675.052H1100V1071.13H413.591V675.052Z" fill="white"/>
</mask>
<g mask="url(#mask12_9_32)">
<path fill-rule="evenodd" clip-rule="evenodd" d="M1324.56 675.052L413.591 1051.55C428.912 1058.66 444.48 1065.2 460.255 1071.13L1302.8 722.9C1310.59 707.229 1317.85 691.271 1324.56 675.052Z" fill="#9BC658"/>
</g>
<mask id="mask13_9_32" style="mask-type:luminance" maskUnits="userSpaceOnUse" x="539" y="797" width="561" height="311">
<path d="M539.211 797.325H1100V1107.45H539.211V797.325Z" fill="white"/>
</mask>
<g mask="url(#mask13_9_32)">
<path fill-rule="evenodd" clip-rule="evenodd" d="M1260.26 797.325L539.211 1095.33C560.527 1100.44 582.123 1104.49 603.904 1107.45L1220.46 852.634C1234.58 834.83 1247.86 816.372 1260.26 797.325Z" fill="#9BC658"/>
</g>
<mask id="mask14_9_32" style="mask-type:luminance" maskUnits="userSpaceOnUse" x="729" y="946" width="371" height="167">
<path d="M729.834 946.461H1100V1112.25H729.834V946.461Z" fill="white"/>
</mask>
<g mask="url(#mask14_9_32)">
<path fill-rule="evenodd" clip-rule="evenodd" d="M1130.96 946.461L729.834 1112.25C801.024 1108.03 872.818 1092.01 942.843 1063.06C1012.87 1034.13 1075.92 994.421 1130.96 946.461Z" fill="#9BC658"/>
</g>
<mask id="mask15_9_32" style="mask-type:luminance" maskUnits="userSpaceOnUse" x="447" y="0" width="653" height="83">
<path d="M447.193 0H1100V82.1274H447.193V0Z" fill="white"/>
</mask>
<g mask="url(#mask15_9_32)">
<path fill-rule="evenodd" clip-rule="evenodd" d="M1454.73 -373.137L459.294 38.2796C454.832 52.754 450.804 67.3768 447.193 82.1274L1491.73 -349.579C1479.63 -357.834 1467.29 -365.701 1454.73 -373.137Z" fill="#7BB1AF"/>
</g>
<mask id="mask16_9_32" style="mask-type:luminance" maskUnits="userSpaceOnUse" x="425" y="0" width="675" height="283">
<path d="M425.201 0H1100V282.529H425.201V0Z" fill="white"/>
</mask>
<g mask="url(#mask16_9_32)">
<path fill-rule="evenodd" clip-rule="evenodd" d="M1611.18 -246.402L425.488 243.642C425.13 256.572 425.111 269.538 425.406 282.529L1636.15 -217.867C1628.06 -227.642 1619.72 -237.155 1611.18 -246.402Z" fill="#7BB1AF"/>
</g>
<mask id="mask17_9_32" style="mask-type:luminance" maskUnits="userSpaceOnUse" x="429" y="0" width="671" height="186">
<path d="M429.329 0H1100V185.222H429.329V0Z" fill="white"/>
</mask>
<g mask="url(#mask17_9_32)">
<path fill-rule="evenodd" clip-rule="evenodd" d="M1540.62 -312.939L434.724 144.136C432.559 157.741 430.755 171.453 429.329 185.222L1570.91 -286.604C1561.04 -295.703 1550.93 -304.485 1540.62 -312.939Z" fill="#7BB1AF"/>
</g>
<mask id="mask18_9_32" style="mask-type:luminance" maskUnits="userSpaceOnUse" x="428" y="0" width="672" height="376">
<path d="M428.716 0H1100V375.021H428.716V0Z" fill="white"/>
</mask>
<g mask="url(#mask18_9_32)">
<path fill-rule="evenodd" clip-rule="evenodd" d="M1669.28 -174.716L428.716 338.006C429.89 350.343 431.384 362.685 433.168 375.021L1689.72 -144.31C1683.12 -154.662 1676.3 -164.804 1669.28 -174.716Z" fill="#7BB1AF"/>
</g>
<mask id="mask19_9_32" style="mask-type:luminance" maskUnits="userSpaceOnUse" x="442" y="0" width="658" height="464">
<path d="M442.764 0H1100V463.208H442.764V0Z" fill="white"/>
</mask>
<g mask="url(#mask19_9_32)">
<path fill-rule="evenodd" clip-rule="evenodd" d="M1716.54 -98.5536L442.764 427.902C445.341 439.686 448.188 451.46 451.336 463.208L1732.86 -66.4387C1727.66 -77.3432 1722.21 -88.0379 1716.54 -98.5536Z" fill="#7BB1AF"/>
</g>
<mask id="mask20_9_32" style="mask-type:luminance" maskUnits="userSpaceOnUse" x="466" y="0" width="634" height="548">
<path d="M466.734 0H1100V547.405H466.734V0Z" fill="white"/>
</mask>
<g mask="url(#mask20_9_32)">
<path fill-rule="evenodd" clip-rule="evenodd" d="M1760.31 -1.5195C1758.24 -7.15072 1756.08 -12.741 1753.89 -18.2955L466.734 513.694C468.672 519.346 470.679 524.987 472.767 530.629C474.846 536.26 476.983 541.85 479.183 547.405L1766.33 15.4151C1764.4 9.76341 1762.39 4.11173 1760.31 -1.5195Z" fill="#7BB1AF"/>
</g>
<mask id="mask21_9_32" style="mask-type:luminance" maskUnits="userSpaceOnUse" x="500" y="65" width="600" height="563">
<path d="M500.214 65.8956H1100V627.658H500.214V65.8956Z" fill="white"/>
</mask>
<g mask="url(#mask21_9_32)">
<path fill-rule="evenodd" clip-rule="evenodd" d="M1781.74 65.8956L500.214 595.558C505.426 606.447 510.87 617.152 516.531 627.658L1790.31 101.202C1787.75 89.4179 1784.88 77.644 1781.74 65.8956Z" fill="#7BB1AF"/>
</g>
<mask id="mask22_9_32" style="mask-type:luminance" maskUnits="userSpaceOnUse" x="543" y="154" width="557" height="550">
<path d="M543.37 154.085H1100V703.823H543.37V154.085Z" fill="white"/>
</mask>
<g mask="url(#mask22_9_32)">
<path fill-rule="evenodd" clip-rule="evenodd" d="M1799.9 154.085L543.37 673.416C549.959 683.773 556.766 693.911 563.806 703.823L1804.37 191.1C1803.18 178.764 1801.7 166.422 1799.9 154.085Z" fill="#7BB1AF"/>
</g>
<mask id="mask23_9_32" style="mask-type:luminance" maskUnits="userSpaceOnUse" x="596" y="246" width="504" height="530">
<path d="M596.919 246.574H1100V775.505H596.919V246.574Z" fill="white"/>
</mask>
<g mask="url(#mask23_9_32)">
<path fill-rule="evenodd" clip-rule="evenodd" d="M1807.67 246.574L596.919 746.971C605.031 756.745 613.356 766.258 621.894 775.505L1807.59 285.461C1807.94 272.531 1807.96 259.566 1807.67 246.574Z" fill="#7BB1AF"/>
</g>
<mask id="mask24_9_32" style="mask-type:luminance" maskUnits="userSpaceOnUse" x="662" y="343" width="438" height="500">
<path d="M662.155 343.891H1100V842.052H662.155V343.891Z" fill="white"/>
</mask>
<g mask="url(#mask24_9_32)">
<path fill-rule="evenodd" clip-rule="evenodd" d="M1803.75 343.891L662.155 815.702C672.037 824.8 682.131 833.582 692.453 842.052L1798.36 384.977C1800.52 371.357 1802.31 357.659 1803.75 343.891Z" fill="#7BB1AF"/>
</g>
<mask id="mask25_9_32" style="mask-type:luminance" maskUnits="userSpaceOnUse" x="741" y="446" width="359" height="457">
<path d="M741.349 446.972H1100V902.237H741.349V446.972Z" fill="white"/>
</mask>
<g mask="url(#mask25_9_32)">
<path fill-rule="evenodd" clip-rule="evenodd" d="M1785.88 446.972L741.349 878.679C753.451 886.944 765.789 894.8 778.344 902.237L1773.78 490.825C1778.24 476.361 1782.27 461.733 1785.88 446.972Z" fill="#7BB1AF"/>
</g>
<mask id="mask26_9_32" style="mask-type:luminance" maskUnits="userSpaceOnUse" x="838" y="557" width="262" height="397">
<path d="M838.79 557.601H1100V953.674H838.79V557.601Z" fill="white"/>
</mask>
<g mask="url(#mask26_9_32)">
<path fill-rule="evenodd" clip-rule="evenodd" d="M1749.76 557.601L838.79 934.1C854.111 941.209 869.679 947.746 885.449 953.674L1728 605.448C1735.79 589.777 1743.05 573.819 1749.76 557.601Z" fill="#7BB1AF"/>
</g>
<mask id="mask27_9_32" style="mask-type:luminance" maskUnits="userSpaceOnUse" x="964" y="679" width="136" height="312">
<path d="M964.41 679.874H1100V990.005H964.41V679.874Z" fill="white"/>
</mask>
<g mask="url(#mask27_9_32)">
<path fill-rule="evenodd" clip-rule="evenodd" d="M1685.46 679.874L964.41 977.878C985.726 982.993 1007.32 987.039 1029.1 990.005L1645.66 735.183C1659.78 717.379 1673.06 698.92 1685.46 679.874Z" fill="#7BB1AF"/>
</g>
</g>
</svg>
